{
  "accessors": [
    {
      "bufferView": 1,
      "componentType": 5126,
      "count": 65532,
      "max": [
        2.8747916221618652,
        2.7158527374267578,
        0.95997530221939087
      ],
      "min": [
        -2.7782576084136963,
        -1.5904380083084106,
        -4.6478686332702637
      ],
      "type": "VEC3"
    },
    {
      "bufferView": 1,
      "byteOffset": 786384,
      "componentType": 5126,
      "count": 65532,
      "max": [
        0.99997049570083618,
        0.99991899728775024,
        0.99999761581420898
      ],
      "min": [
        -0.99996745586395264,
        -0.99998581409454346,
        -0.99999034404754639
      ],
      "type": "VEC3"
    },
    {
      "bufferView": 2,
      "componentType": 5126,
      "count": 65532,
      "max": [
        0.7137255072593689,
        0.58039218187332153,
        0.49411764740943909,
        1
      ],
      "min": [
        0.32156863808631897,
        0.25490197539329529,
        0.20784313976764679,
        1
      ],
      "type": "VEC4"
    },
    {
      "bufferView": 0,
      "componentType": 5125,
      "count": 283245,
      "max": [
        65531
      ],
      "min": [
        0
      ],
      "type": "SCALAR"
    },
    {
      "bufferView": 1,
      "byteOffset": 1572768,
      "componentType": 5126,
      "count": 65532,
      "max": [
        2.877333402633667,
        2.3973515033721924,
        1.2907180786132812
      ],
      "min": [
        -2.0715501308441162,
        -2.6183302402496338,
        -4.6073017120361328
      ],
      "type": "VEC3"
    },
    {
      "bufferView": 1,
      "byteOffset": 2359152,
      "componentType": 5126,
      "count": 65532,
      "max": [
        0.99997645616531372,
        0.99995875358581543,
        0.99999690055847168
      ],
      "min": [
        -0.99992775917053223,
        -0.99999046325683594,
        -0.99996167421340942
      ],
      "type": "VEC3"
    },
    {
      "bufferView": 2,
      "byteOffset": 1048512,
      "componentType": 5126,
      "count": 65532,
      "max": [
        0.71764707565307617,
        0.58039218187332153,
        0.49411764740943909,
        1
      ],
      "min": [
        0.34117648005485535,
        0.26666668057441711,
        0.21568627655506134,
        1
      ],
      "type": "VEC4"
    },
    {
      "bufferView": 0,
      "byteOffset": 1132980,
      "componentType": 5125,
      "count": 283974,
      "max": [
        65531
      ],
      "min": [
        0
      ],
      "type": "SCALAR"
    },
    {
      "bufferView": 1,
      "byteOffset": 3145536,
      "componentType": 5126,
      "count": 65532,
      "max": [
        2.6235542297363281,
        2.5460543632507324,
        1.5541406869888306
      ],
      "min": [
        -3.4749479293823242,
        -2.6657967567443848,
        -4.8667874336242676
      ],
      "type": "VEC3"
    },
    {
      "bufferView": 1,
      "byteOffset": 3931920,
      "componentType": 5126,
      "count": 65532,
      "max": [
        0.99995708465576172,
        0.99993187189102173,
        0.99999523162841797
      ],
      "min": [
        -0.99996262788772583,
        -0.99997413158416748,
        -0.9999772310256958
      ],
      "type": "VEC3"
    },
    {
      "bufferView": 2,
      "byteOffset": 2097024,
      "componentType": 5126,
      "count": 65532,
      "max": [
        0.71764707565307617,
        0.58039218187332153,
        0.49411764740943909,
        1
      ],
      "min": [
        0.32941177487373352,
        0.25882354378700256,
        0.21176470816135406,
        1
      ],
      "type": "VEC4"
    },
    {
      "bufferView": 0,
      "byteOffset": 2268876,
      "componentType": 5125,
      "count": 292779,
      "max": [
        65531
      ],
      "min": [
        0
      ],
      "type": "SCALAR"
    },
    {
      "bufferView": 1,
      "byteOffset": 4718304,
      "componentType": 5126,
      "count": 65532,
      "max": [
        2.7900147438049316,
        2.7831821441650391,
        1.3116219043731689
      ],
      "min": [
        -3.4661903381347656,
        -2.2373762130737305,
        -4.9262146949768066
      ],
      "type": "VEC3"
    },
    {
      "bufferView": 1,
      "byteOffset": 5504688,
      "componentType": 5126,
      "count": 65532,
      "max": [
        0.99999624490737915,
        0.99996942281723022,
        0.99997538328170776
      ],
      "min": [
        -0.99989223480224609,
        -0.99995869398117065,
        -0.99999582767486572
      ],
      "type": "VEC3"
    },
    {
      "bufferView": 2,
      "byteOffset": 3145536,
      "componentType": 5126,
      "count": 65532,
      "max": [
        0.72156864404678345,
        0.58431375026702881,
        0.50196081399917603,
        1
      ],
      "min": [
        0.33725491166114807,
        0.26274511218070984,
        0.21176470816135406,
        1
      ],
      "type": "VEC4"
    },
    {
      "bufferView": 0,
      "byteOffset": 3439992,
      "componentType": 5125,
      "count": 288156,
      "max": [
        65531
      ],
      "min": [
        0
      ],
      "type": "SCALAR"
    },
    {
      "bufferView": 1,
      "byteOffset": 6291072,
      "componentType": 5126,
      "count": 65532,
      "max": [
        2.7551612854003906,
        2.7872669696807861,
        1.5579302310943604
      ],
      "min": [
        -3.4749479293823242,
        -2.7040536403656006,
        -6.6836380958557129
      ],
      "type": "VEC3"
    },
    {
      "bufferView": 1,
      "byteOffset": 7077456,
      "componentType": 5126,
      "count": 65532,
      "max": [
        0.9999576210975647,
        0.99995899200439453,
        0.99996674060821533
      ],
      "min": [
        -0.99999618530273438,
        -0.99998331069946289,
        -0.99999934434890747
      ],
      "type": "VEC3"
    },
    {
      "bufferView": 2,
      "byteOffset": 4194048,
      "componentType": 5126,
      "count": 65532,
      "max": [
        0.729411780834198,
        0.59215688705444336,
        0.50196081399917603,
        1
      ],
      "min": [
        0.33725491166114807,
        0.25882354378700256,
        0.21176470816135406,
        1
      ],
      "type": "VEC4"
    },
    {
      "bufferView": 0,
      "byteOffset": 4592616,
      "componentType": 5125,
      "count": 299661,
      "max": [
        65531
      ],
      "min": [
        0
      ],
      "type": "SCALAR"
    },
    {
      "bufferView": 1,
      "byteOffset": 7863840,
      "componentType": 5126,
      "count": 65532,
      "max": [
        2.5737185478210449,
        2.7915771007537842,
        1.6547425985336304
      ],
      "min": [
        -3.4170873165130615,
        -2.5531036853790283,
        -6.631171703338623
      ],
      "type": "VEC3"
    },
    {
      "bufferView": 1,
      "byteOffset": 8650224,
      "componentType": 5126,
      "count": 65532,
      "max": [
        0.99997055530548096,
        0.99997603893280029,
        0.99998605251312256
      ],
      "min": [
        -0.99987506866455078,
        -0.99999213218688965,
        -0.99992555379867554
      ],
      "type": "VEC3"
    },
    {
      "bufferView": 2,
      "byteOffset": 5242560,
      "componentType": 5126,
      "count": 65532,
      "max": [
        0.72156864404678345,
        0.58431375026702881,
        0.49803921580314636,
        1
      ],
      "min": [
        0.3333333432674408,
        0.26274511218070984,
        0.21176470816135406,
        1
      ],
      "type": "VEC4"
    },
    {
      "bufferView": 0,
      "byteOffset": 5791260,
      "componentType": 5125,
      "count": 306348,
      "max": [
        65531
      ],
      "min": [
        0
      ],
      "type": "SCALAR"
    },
    {
      "bufferView": 1,
      "byteOffset": 9436608,
      "componentType": 5126,
      "count": 65532,
      "max": [
        2.8649756908416748,
        2.7831821441650391,
        1.545900821685791
      ],
      "min": [
        -3.4733374118804932,
        -2.7040536403656006,
        -6.5010852813720703
      ],
      "type": "VEC3"
    },
    {
      "bufferView": 1,
      "byteOffset": 10222992,
      "componentType": 5126,
      "count": 65532,
      "max": [
        0.99999946355819702,
        0.99996942281723022,
        0.99999761581420898
      ],
      "min": [
        -0.99999839067459106,
        -0.99999439716339111,
        -0.99997210502624512
      ],
      "type": "VEC3"
    },
    {
      "bufferView": 2,
      "byteOffset": 6291072,
      "componentType": 5126,
      "count": 65532,
      "max": [
        0.729411780834198,
        0.59215688705444336,
        0.50196081399917603,
        1
      ],
      "min": [
        0.32156863808631897,
        0.25490197539329529,
        0.20784313976764679,
        1
      ],
      "type": "VEC4"
    },
    {
      "bufferView": 0,
      "byteOffset": 7016652,
      "componentType": 5125,
      "count": 263700,
      "max": [
        65531
      ],
      "min": [
        0
      ],
      "type": "SCALAR"
    },
    {
      "bufferView": 1,
      "byteOffset": 11009376,
      "componentType": 5126,
      "count": 65532,
      "max": [
        2.866755485534668,
        2.7854287624359131,
        1.5628812313079834
      ],
      "min": [
        -3.4317805767059326,
        -2.696505069732666,
        -6.6615762710571289
      ],
      "type": "VEC3"
    },
    {
      "bufferView": 1,
      "byteOffset": 11795760,
      "componentType": 5126,
      "count": 65532,
      "max": [
        0.99998980760574341,
        0.99996340274810791,
        0.99999690055847168
      ],
      "min": [
        -0.99999159574508667,
        -0.99999046325683594,
        -0.999958336353302
      ],
      "type": "VEC3"
    },
    {
      "bufferView": 2,
      "byteOffset": 7339584,
      "componentType": 5126,
      "count": 65532,
      "max": [
        0.7137255072593689,
        0.58039218187332153,
        0.49411764740943909,
        1
      ],
      "min": [
        0.32156863808631897,
        0.25490197539329529,
        0.20784313976764679,
        1
      ],
      "type": "VEC4"
    },
    {
      "bufferView": 0,
      "byteOffset": 8071452,
      "componentType": 5125,
      "count": 150345,
      "max": [
        65531
      ],
      "min": [
        0
      ],
      "type": "SCALAR"
    },
    {
      "bufferView": 1,
      "byteOffset": 12582144,
      "componentType": 5126,
      "count": 26626,
      "max": [
        2.877333402633667,
        2.7915771007537842,
        1.5520590543746948
      ],
      "min": [
        -3.4400968551635742,
        -2.6505141258239746,
        -6.5230450630187988
      ],
      "type": "VEC3"
    },
    {
      "bufferView": 1,
      "byteOffset": 12901656,
      "componentType": 5126,
      "count": 26626,
      "max": [
        0.99999624490737915,
        0.99991637468338013,
        0.99981904029846191
      ],
      "min": [
        -0.99989420175552368,
        -0.99994397163391113,
        -0.99999582767486572
      ],
      "type": "VEC3"
    },
    {
      "bufferView": 2,
      "byteOffset": 8388096,
      "componentType": 5126,
      "count": 26626,
      "max": [
        0.71764707565307617,
        0.58039218187332153,
        0.49411764740943909,
        1
      ],
      "min": [
        0.34117648005485535,
        0.26274511218070984,
        0.21568627655506134,
        1
      ],
      "type": "VEC4"
    },
    {
      "bufferView": 0,
      "byteOffset": 8672832,
      "componentType": 5125,
      "count": 34314,
      "max": [
        26625
      ],
      "min": [
        0
      ],
      "type": "SCALAR"
    }
  ],
  "asset": {
    "extras": {
      "author": "aidinsalsabili (https://sketchfab.com/aidinsalsabili)",
      "license": "CC-BY-NC-4.0 (http://creativecommons.org/licenses/by-nc/4.0/)",
      "source": "https://sketchfab.com/3d-models/giant-08d3082d387a47689c3f3f4063c1e08d",
      "title": "Giant"
    },
    "generator": "Sketchfab-9.43.0",
    "version": "2.0"
  },
  "bufferViews": [
    {
      "buffer": 0,
      "byteLength": 8810088,
      "byteOffset": 0,
      "name": "floatBufferViews",
      "target": 34963
    },
    {
      "buffer": 0,
      "byteLength": 13221168,
      "byteOffset": 8810088,
      "byteStride": 12,
      "name": "floatBufferViews",
      "target": 34962
    },
    {
      "buffer": 0,
      "byteLength": 8814112,
      "byteOffset": 22031256,
      "byteStride": 16,
      "name": "floatBufferViews",
      "target": 34962
    }
  ],
  "buffers": [
    {
      "byteLength": 30845368,
      "uri": "scene.bin"
    }
  ],
  "materials": [
    {
      "doubleSided": true,
      "name": "material_0",
      "pbrMetallicRoughness": {
        "baseColorFactor": [
          0.65924126863515453,
          0.58198106019905249,
          0.50121686911678232,
          1
        ],
        "metallicFactor": 0,
        "roughnessFactor": 0.59148684554536113
      }
    }
  ],
  "meshes": [
    {
      "primitives": [
        {
          "attributes": {
            "COLOR_0": 2,
            "NORMAL": 1,
            "POSITION": 0
          },
          "indices": 3,
          "material": 0,
          "mode": 4
        }
      ]
    },
    {
      "primitives": [
        {
          "attributes": {
            "COLOR_0": 6,
            "NORMAL": 5,
            "POSITION": 4
          },
          "indices": 7,
          "material": 0,
          "mode": 4
        }
      ]
    },
    {
      "primitives": [
        {
          "attributes": {
            "COLOR_0": 10,
            "NORMAL": 9,
            "POSITION": 8
          },
          "indices": 11,
          "material": 0,
          "mode": 4
        }
      ]
    },
    {
      "primitives": [
        {
          "attributes": {
            "COLOR_0": 14,
            "NORMAL": 13,
            "POSITION": 12
          },
          "indices": 15,
          "material": 0,
          "mode": 4
        }
      ]
    },
    {
      "primitives": [
        {
          "attributes": {
            "COLOR_0": 18,
            "NORMAL": 17,
            "POSITION": 16
          },
          "indices": 19,
          "material": 0,
          "mode": 4
        }
      ]
    },
    {
      "primitives": [
        {
          "attributes": {
            "COLOR_0": 22,
            "NORMAL": 21,
            "POSITION": 20
          },
          "indices": 23,
          "material": 0,
          "mode": 4
        }
      ]
    },
    {
      "primitives": [
        {
          "attributes": {
            "COLOR_0": 26,
            "NORMAL": 25,
            "POSITION": 24
          },
          "indices": 27,
          "material": 0,
          "mode": 4
        }
      ]
    },
    {
      "primitives": [
        {
          "attributes": {
            "COLOR_0": 30,
            "NORMAL": 29,
            "POSITION": 28
          },
          "indices": 31,
          "material": 0,
          "mode": 4
        }
      ]
    },
    {
      "primitives": [
        {
          "attributes": {
            "COLOR_0": 34,
            "NORMAL": 33,
            "POSITION": 32
          },
          "indices": 35,
          "material": 0,
          "mode": 4
        }
      ]
    }
  ],
  "nodes": [
    {
      "children": [
        1
      ],
      "name": "RootNode (gltf orientation matrix)",
      "rotation": [
        -0.70710678118654746,
        -0,
        -0,
        0.70710678118654757
      ]
    },
    {
      "children": [
        2
      ],
      "name": "RootNode (model correction matrix)"
    },
    {
      "children": [
        3,
        4,
        5,
        6,
        7,
        8,
        9,
        10,
        11
      ],
      "name": "Giant.OBJ.cleaner.materialmerger.gles"
    },
    {
      "mesh": 0,
      "name": ""
    },
    {
      "mesh": 1,
      "name": ""
    },
    {
      "mesh": 2,
      "name": ""
    },
    {
      "mesh": 3,
      "name": ""
    },
    {
      "mesh": 4,
      "name": ""
    },
    {
      "mesh": 5,
      "name": ""
    },
    {
      "mesh": 6,
      "name": ""
    },
    {
      "mesh": 7,
      "name": ""
    },
    {
      "mesh": 8,
      "name": ""
    }
  ],
  "scene": 0,
  "scenes": [
    {
      "name": "OSG_Scene",
      "nodes": [
        0
      ]
    }
  ]
}

